# xmcd CD database file
#
# Track frame offsets:
#       150
#       12565
#       25393
#       37085
#       48913
#       59474
#       70974
#       84804
#       95964
#       106449
#       118023
#       130389
#       142251
#       153180
#       164271
#       178048
#       188795
#       201899
#       213197
#       226002
#       236705
#       250390
#       260351
#       271073
#       281026
#       290353
#       302135
#       312274
#       322950
#       337327
#
# Disc length: 4635 seconds
#
# Revision: 
# Submitted via: crip v3.9 (http://bach.dynet.com/crip)
#
# Revision: 0
# Processed by: cddbd v1.5.2PL0 Copyright (c) Steve Scherf et al.
#
DISCID=c512191e
DTITLE=Patsy Cline - The Definitve Collection (1/2)
DYEAR=2012
DGENRE=country
TTITLE0=Patsy Cline - Crazy
TTITLE1=Patsy Cline - I Fall To Pieces
TTITLE2=Patsy Cline - Walkin' After Midnight
TTITLE3=Patsy Cline - Let The Teardrops Fall
TTITLE4=Patsy Cline - Lovesick Blues
TTITLE5=Patsy Cline - Crazy Dreams
TTITLE6=Patsy Cline - A Church A Courtroom And Goodbye
TTITLE7=Patsy Cline - Hidin' Out
TTITLE8=Patsy Cline - I Love You Honey
TTITLE9=Patsy Cline - I've Loved and Lost Again
TTITLE10=Patsy Cline - A Poor Man's Roses
TTITLE11=Patsy Cline - Today,Tomorrow and Forever
TTITLE12=Patsy Cline - I Don't Wanta
TTITLE13=Patsy Cline - Stop The World
TTITLE14=Patsy Cline - Come On In
TTITLE15=Patsy Cline - I Can See An Angel
TTITLE16=Patsy Cline - If I Could See The World
TTITLE17=Patsy Cline - Dear God
TTITLE18=Patsy Cline - Yes I Understand
TTITLE19=Patsy Cline - Got A Lot Of Rhythm In My Soul
TTITLE20=Patsy Cline - She's Got You
TTITLE21=Patsy Cline - When I Get Through With You
TTITLE22=Patsy Cline - So Wrong
TTITLE23=Patsy Cline - Heartaches
TTITLE24=Patsy Cline - Honky Tonk Merry Go Round
TTITLE25=Patsy Cline - Turn The Cards Slowly
TTITLE26=Patsy Cline - Three Cigarettes In An Ashtray
TTITLE27=Patsy Cline - Stop Look and Listen
TTITLE28=Patsy Cline - Then You'll Know
TTITLE29=Patsy Cline - Walking Dream
EXTD=
EXTT0=
EXTT1=
EXTT2=
EXTT3=
EXTT4=
EXTT5=
EXTT6=
EXTT7=
EXTT8=
EXTT9=
EXTT10=
EXTT11=
EXTT12=
EXTT13=
EXTT14=
EXTT15=
EXTT16=
EXTT17=
EXTT18=
EXTT19=
EXTT20=
EXTT21=
EXTT22=
EXTT23=
EXTT24=
EXTT25=
EXTT26=
EXTT27=
EXTT28=
EXTT29=
PLAYORDER=
